<svg width="20" height="14" viewBox="0 0 20 14" fill="none" xmlns="http://www.w3.org/2000/svg">
<path d="M0.272366 7.65757L6.22404 13.6092C6.58716 13.9724 7.17608 13.9724 7.53921 13.6092C7.90241 13.246 7.90241 12.6573 7.53921 12.2941L3.17507 7.92994L19.0701 7.92994C19.5836 7.92994 20 7.51354 20 6.99999C20 6.48651 19.5836 6.07004 19.0701 6.07004L3.17507 6.07004L7.53906 1.7059C7.90226 1.3427 7.90226 0.753929 7.53906 0.390728C7.35753 0.209277 7.11947 0.118365 6.88147 0.118365C6.64348 0.118365 6.40549 0.209277 6.22389 0.390728L0.272366 6.3424C-0.0908356 6.7056 -0.0908356 7.29437 0.272366 7.65757Z" fill="black"/>
</svg>
