<svg width="15" height="11" viewBox="0 0 15 11" fill="none" xmlns="http://www.w3.org/2000/svg">
<path d="M14.7957 5.00681L10.332 0.543057C10.0596 0.270712 9.61794 0.270712 9.34559 0.543057C9.07319 0.815458 9.07319 1.25703 9.34559 1.52944L12.6187 4.80254H0.697462C0.312295 4.80254 0 5.11483 0 5.5C0 5.88511 0.312295 6.19746 0.697462 6.19746H12.6187L9.34571 9.47057C9.07331 9.74297 9.07331 10.1845 9.34571 10.4569C9.48185 10.593 9.6604 10.6612 9.83889 10.6612C10.0174 10.6612 10.1959 10.593 10.3321 10.4569L14.7957 5.99319C15.0681 5.72079 15.0681 5.27921 14.7957 5.00681Z" fill="black"/>
</svg>
