<svg width="10" height="10" viewBox="0 0 10 10" fill="none" xmlns="http://www.w3.org/2000/svg">
<g clip-path="url(#clip0)">
<path d="M9.97385 3.83558C9.90801 3.63309 9.72841 3.48973 9.51677 3.47058L6.63006 3.20851L5.48922 0.537572C5.40499 0.341341 5.21333 0.214691 5.00001 0.214691C4.78669 0.214691 4.59496 0.341341 4.51127 0.537572L3.37042 3.20851L0.48326 3.47058C0.271617 3.49011 0.0923996 3.63347 0.0261753 3.83558C-0.0396675 4.03806 0.0211398 4.26016 0.181207 4.40054L2.36333 6.31394L1.71993 9.14769C1.67286 9.35605 1.75373 9.57151 1.92661 9.69648C2.01954 9.764 2.12872 9.79772 2.23828 9.79772C2.33243 9.79772 2.42665 9.7727 2.51081 9.72234L5.00001 8.23398L7.48876 9.72234C7.67134 9.83145 7.90091 9.82145 8.07341 9.69648C8.2463 9.57151 8.32717 9.35605 8.2801 9.14769L7.6367 6.31394L9.81882 4.40054C9.97881 4.26016 10.0397 4.03852 9.97385 3.83558Z" fill="#F6D186"/>
</g>
<defs>
<clipPath id="clip0">
<rect width="10" height="10" fill="white"/>
</clipPath>
</defs>
</svg>
